<svg width="112" height="303" viewBox="0 0 112 303" fill="none" xmlns="http://www.w3.org/2000/svg">
<path d="M104.551 73.6768V127.44C104.551 133.399 109.097 134.46 112 134.46V135.708H87.3311V134.46C91.1008 134.46 94.6858 133.594 94.6858 127.534V101.28H62.3757V127.534C62.3757 133.594 66.0512 134.46 69.8247 134.46V135.708H44.9635V134.46C47.9793 134.46 52.5029 133.399 52.5029 127.44V73.7743C52.5029 67.8076 47.9566 66.6533 44.9635 66.6533V65.4015H69.8247V66.6533C66.055 66.6533 62.3757 67.519 62.3757 73.6731V99.927H94.6858V73.5794C94.6858 67.5228 90.9161 66.657 87.1464 66.657V65.4052H111.796V66.657C108.905 66.657 104.551 67.7139 104.551 73.6768Z" fill="#DBAB3E"/>
<path d="M71.1241 218.795V220.186H45.8527V218.795C51.1499 218.795 53.6442 214.934 51.849 209.145L45.2554 191.136H19.5771L16.1802 200.569C10.6008 215.475 20.1777 218.798 24.871 218.798V220.19H0V218.798C7.68971 218.798 10.6862 210.219 12.9836 204.322C13.6826 202.501 31.7664 153.931 31.2643 152.966L27.8707 145.14C27.1716 143.745 26.1706 142.458 24.7725 141.708L38.8588 144.39C38.8588 144.39 62.6336 208.503 62.8338 208.929C66.3291 217.508 67.2284 218.795 71.1241 218.795ZM44.7533 189.512L32.4655 155.749L20.076 189.512H44.7533Z" fill="#DBAB3E"/>
<path d="M112 266.569C112 286.652 96.3795 302.949 78.4835 302.949C60.5876 302.949 44.9635 286.652 44.9635 266.569C44.9635 246.486 60.5876 230.19 78.4835 230.19C96.3795 230.19 112 246.486 112 266.569ZM99.5417 266.085C99.5417 247.069 91.334 231.451 78.4835 231.451C65.7285 231.451 57.4218 247.069 57.4218 266.085C57.4218 285.102 65.7285 301.688 78.4835 301.688C91.334 301.688 99.5417 285.098 99.5417 266.085Z" fill="#DBAB3E"/>
<path d="M42.511 1.49559C37.6069 1.49559 32.293 2.30193 32.293 10.0107V64.6749C32.293 72.0357 33.6567 106.678 0 106.678V105.297C19.3476 105.183 18.2593 64.3303 18.2593 64.3303V9.6661C18.2593 1.84021 11.716 1.49559 7.90363 1.49559V0H42.5009L42.511 1.49559Z" fill="#DBAB3E"/>
</svg>
