<svg width="60" height="60" viewBox="0 0 60 60" fill="none" xmlns="http://www.w3.org/2000/svg">
<circle cx="30" cy="30" r="29" stroke="#DBAB3E" stroke-width="2"/>
<path d="M23.2364 57.6161C23.2333 57.2313 23.2301 55.5647 23.227 54.0047L23.2239 52.3841C16.1884 53.3408 14.4852 48.432 14.4664 48.3797C13.4898 45.9038 12.1547 45.196 12.0971 45.1667L11.9675 45.0914C11.4834 44.761 10.1995 43.8817 10.5644 42.7254C10.8937 41.683 12.1703 41.5753 12.7506 41.5941C15.9646 41.8189 17.5915 44.7077 17.6584 44.8301C19.2989 47.6415 21.803 47.3509 23.4183 46.758C23.5689 46.0387 23.8021 45.3779 24.1074 44.7945C18.9256 43.8755 13.0549 41.1194 13.0549 31.0936C13.0549 28.3407 13.9122 25.9077 15.6071 23.849C15.2286 22.5881 14.7978 20.0161 16.0734 16.7759L16.2553 16.3138L16.7279 16.1632C17.1628 16.02 19.5383 15.5108 24.4221 18.707C26.4379 18.1905 28.5718 17.9239 30.7727 17.9135C32.9841 17.9239 35.1201 18.1905 37.1401 18.707C42.0197 15.5097 44.39 16.0252 44.8259 16.1632L45.2975 16.3148L45.4794 16.7749C46.7602 20.014 46.3294 22.5871 45.951 23.849C47.6427 25.9015 48.5 28.3355 48.5 31.0936C48.5 41.1215 42.623 43.8692 37.4297 44.7767C38.0184 45.8902 38.3373 47.2881 38.3373 48.8314C38.3373 50.591 38.33 56.3635 38.3216 57.6161L36.2305 57.6014C36.2389 56.351 36.2462 50.5879 36.2462 48.8303C36.2462 46.2771 35.2602 45.1479 34.8347 44.7799L33.0259 43.2147L35.4035 42.9502C40.8455 42.3458 46.4079 40.4628 46.4079 31.0926C46.4079 28.6565 45.5955 26.533 43.9926 24.7817L43.5431 24.2913L43.7961 23.6776C43.9696 23.2583 44.7308 21.1243 43.7511 18.1456C42.9586 18.1926 41.0661 18.5659 37.9128 20.704L37.5113 20.9748L37.046 20.8462C35.0982 20.3046 32.9286 20.014 30.7717 20.0035C28.6262 20.014 26.4598 20.3046 24.5151 20.8462L24.0499 20.9748L23.6494 20.704C20.4929 18.5669 18.5963 18.1905 17.8006 18.1435C16.823 21.1243 17.5852 23.2583 17.7588 23.6776L18.0118 24.2913L17.5633 24.7817C15.9573 26.5392 15.1439 28.6627 15.1439 31.0926C15.1439 40.4586 20.6957 42.3532 26.1263 42.9711L28.4809 43.2387L26.6951 44.7966C26.3061 45.1364 25.6182 45.9592 25.384 47.6478L25.3056 48.2218L24.7765 48.4592C23.3953 49.0781 18.6716 50.7196 15.8392 45.861C15.8235 45.8348 15.2704 44.8729 14.2688 44.233C14.9442 44.9012 15.767 45.9822 16.4309 47.6698C16.5 47.8684 17.8498 51.4567 24.0425 50.1153L25.3035 49.8414L25.316 54.0006C25.3192 55.5553 25.3223 57.2167 25.3254 57.6014L23.2364 57.6161Z" fill="#DBAB3E"/>
</svg>
