<svg width="60" height="60" viewBox="0 0 60 60" fill="none" xmlns="http://www.w3.org/2000/svg">
<circle cx="30" cy="30" r="29" stroke="#DBAB3E" stroke-width="2"/>
<path d="M47.9486 17H12.0513C10.923 17 10 17.923 10 19.0512V41.6153C10 42.7435 10.923 43.6667 12.0513 43.6667H47.9487C49.0768 43.6667 50 42.7436 50 41.6153V19.0512C49.9999 17.923 49.0769 17 47.9486 17ZM47.1788 18.5384L31.18 30.5385C30.8923 30.7574 30.4507 30.8943 29.9999 30.8923C29.5491 30.8943 29.1076 30.7574 28.8199 30.5385L12.821 18.5384H47.1788ZM38.6328 31.3303L47.3507 42.0996C47.3595 42.1103 47.3702 42.1185 47.3795 42.1283H12.6205C12.6297 42.1181 12.6405 42.1103 12.6492 42.0996L21.3672 31.3303C21.6343 31 21.5836 30.5159 21.2528 30.2482C20.9226 29.9811 20.4384 30.0317 20.1712 30.362L11.5384 41.0261V19.4999L27.8973 31.7691C28.5122 32.2271 29.2604 32.4286 29.9998 32.4307C30.7382 32.4291 31.487 32.2275 32.1023 31.7691L48.4612 19.4999V41.026L39.8286 30.362C39.5614 30.0318 39.0768 29.981 38.7471 30.2482C38.4163 30.5153 38.3655 31 38.6328 31.3303Z" fill="#DBAB3E"/>
</svg>
