<svg width="60" height="60" viewBox="0 0 60 60" fill="none" xmlns="http://www.w3.org/2000/svg">
<path d="M14.5269 23.6062H21.1643V44.9384H14.5269V23.6062ZM17.849 13C18.6095 13.0007 19.3526 13.2268 19.9846 13.6498C20.6166 14.0727 21.1089 14.6736 21.3995 15.3763C21.69 16.0791 21.7657 16.8522 21.6169 17.598C21.4681 18.3437 21.1016 19.0286 20.5637 19.5661C20.0257 20.1036 19.3405 20.4695 18.5946 20.6176C17.8487 20.7657 17.0757 20.6893 16.3732 20.3982C15.6707 20.107 15.0703 19.6141 14.6479 18.9818C14.2255 18.3494 14 17.6061 14 16.8456C13.9996 16.3402 14.0988 15.8396 14.2921 15.3726C14.4855 14.9056 14.769 14.4814 15.1266 14.1241C15.4841 13.7669 15.9086 13.4837 16.3758 13.2908C16.843 13.0979 17.3436 12.9991 17.849 13" fill="#DBAB3E"/>
<path d="M25.3247 23.6065H31.6816V26.5181H31.7706C32.6567 24.8416 34.819 23.0728 38.0454 23.0728C44.7581 23.0728 46 27.4897 46 33.2376V44.9352H39.3694V34.5651C39.3694 32.0915 39.3249 28.913 35.9241 28.913C32.472 28.913 31.9485 31.609 31.9485 34.3872V44.9387H25.3247V23.6065Z" fill="#DBAB3E"/>
<circle cx="30" cy="30" r="29" stroke="#DBAB3E" stroke-width="2"/>
</svg>
