<svg width="17" height="17" viewBox="0 0 17 17" fill="none" xmlns="http://www.w3.org/2000/svg">
<path fill-rule="evenodd" clip-rule="evenodd" d="M0 0V17H17V0H0ZM12.5493 13.7636C11.7971 13.7636 11.442 13.255 11.1152 12.7242L9.91671 13.5199C10.3644 14.3997 11.1686 15.1104 12.5848 15.1104C14.0326 15.1104 15.1112 14.3619 15.1112 12.9962C15.1112 11.7288 14.3802 11.1649 13.0839 10.6129L12.7028 10.4505C12.0488 10.1686 11.7655 9.98439 11.7655 9.52917C11.7655 9.16084 12.0483 8.87892 12.495 8.87892C12.9328 8.87892 13.2152 9.06262 13.4763 9.52917L14.6635 8.77031C14.161 7.89103 13.4645 7.55528 12.495 7.55528C11.1336 7.55528 10.2624 8.42134 10.2624 9.55939C10.2624 10.7943 10.9938 11.3789 12.0937 11.8454L12.4747 12.0079C13.1698 12.3106 13.5127 12.4952 13.5127 13.0151C13.5127 13.4496 13.1812 13.7636 12.5493 13.7636ZM6.7684 13.5199C6.24612 13.5199 5.88298 13.1908 5.64404 12.7629L4.40729 13.5199C4.76523 14.2859 5.64357 15.1104 6.86048 15.1104C8.20726 15.1104 9.12951 14.3869 9.12951 12.7969V7.55481H7.55559V12.5552C7.55559 13.3225 7.26801 13.5199 6.7684 13.5199Z" fill="#DBAB3E"/>
</svg>
