<svg width="15" height="17" viewBox="0 0 15 17" fill="none" xmlns="http://www.w3.org/2000/svg">
<path d="M6.82322 0.181366C7.23308 -0.0599101 7.76693 -0.061 8.17643 0.181366C10.2366 1.3786 12.2975 2.57397 14.3573 3.77193C14.7447 3.99638 15.0039 4.43982 15 4.89894V12.102C15.0028 12.5801 14.7181 13.0342 14.3093 13.2535C12.2559 14.4441 10.2035 15.6362 8.15047 16.8269C7.73213 17.0729 7.18757 17.0539 6.7823 16.7878C6.16669 16.4207 5.55001 16.0555 4.93434 15.6889C4.80853 15.6117 4.66671 15.5503 4.57787 15.4249C4.65641 15.316 4.79682 15.3025 4.91091 15.2549C5.16788 15.1709 5.40389 15.036 5.63997 14.9051C5.69966 14.8631 5.77255 14.8792 5.82977 14.9168C6.3562 15.2272 6.87797 15.5466 7.40616 15.8541C7.51884 15.921 7.63293 15.8322 7.72925 15.7769C9.74429 14.6057 11.7618 13.4388 13.7765 12.2672C13.8511 12.2303 13.8924 12.1488 13.8863 12.0647C13.8878 9.68856 13.8867 7.312 13.8871 4.93587C13.8956 4.84045 13.8419 4.75272 13.758 4.71367C11.7117 3.52848 9.66646 2.34147 7.62051 1.15598C7.58507 1.13091 7.54307 1.11747 7.50006 1.1174C7.45704 1.11734 7.41501 1.13066 7.37949 1.15561C5.33354 2.34147 3.28865 3.52957 1.2427 4.71469C1.15911 4.75381 1.103 4.84009 1.11295 4.93587C1.1133 7.312 1.11295 9.68856 1.11295 12.0651C1.1094 12.1061 1.11817 12.1473 1.13806 12.183C1.15795 12.2188 1.18802 12.2474 1.22422 12.265C1.77019 12.5834 2.31687 12.8996 2.86319 13.2169C3.17097 13.3873 3.54886 13.4886 3.88796 13.358C4.1872 13.2476 4.39696 12.9336 4.39125 12.6068C4.39408 10.2446 4.38984 7.88192 4.39337 5.52002C4.38589 5.41515 4.48262 5.32851 4.58176 5.33838C4.84409 5.33656 5.10677 5.33475 5.3691 5.33911C5.4786 5.33656 5.55396 5.44948 5.54042 5.55513C5.53936 7.93236 5.54324 10.3096 5.53865 12.6869C5.53936 13.3204 5.28627 14.0098 4.71646 14.3198C4.01448 14.6938 3.14683 14.6145 2.45333 14.2559C1.85296 13.9477 1.28003 13.584 0.690315 13.2538C0.280513 13.0357 -0.00283402 12.5798 5.06704e-05 12.102V4.89894C-0.00424693 4.43031 0.265207 3.97882 0.664706 3.75764C2.71778 2.56603 4.7705 1.37352 6.82322 0.181366Z" fill="#DBAB3E"/>
<path d="M8.61358 5.16996C9.50893 5.11069 10.4674 5.13485 11.2731 5.58852C11.8969 5.93617 12.2428 6.66582 12.2538 7.37862C12.2364 7.47477 12.1386 7.52781 12.0494 7.52121C11.7896 7.52085 11.5298 7.52484 11.27 7.51939C11.1598 7.52375 11.0958 7.41925 11.0819 7.31905C11.0073 6.97799 10.8265 6.6402 10.5144 6.4757C10.0352 6.22897 9.47973 6.24139 8.9573 6.24653C8.57591 6.26736 8.16579 6.30133 7.84268 6.53201C7.59462 6.70674 7.51927 7.05949 7.6078 7.34357C7.69127 7.54755 7.9202 7.61336 8.10751 7.67403C9.18652 7.96429 10.3299 7.93541 11.3883 8.31739C11.8265 8.47312 12.2552 8.77585 12.4052 9.24774C12.6014 9.88021 12.5154 10.6362 12.0779 11.1439C11.7231 11.5618 11.2064 11.7892 10.691 11.9127C10.0054 12.0699 9.29389 12.0739 8.59763 12.0041C7.94293 11.9273 7.26161 11.7504 6.75619 11.2916C6.324 10.9056 6.11291 10.3042 6.13387 9.72376C6.13887 9.62573 6.23376 9.55738 6.32506 9.56543C6.58666 9.56325 6.84826 9.56252 7.10986 9.56579C7.21435 9.5581 7.29181 9.65098 7.29717 9.75227C7.34544 10.0772 7.46417 10.4183 7.73966 10.6109C8.27134 10.9637 8.93846 10.9396 9.54725 10.9495C10.0516 10.9264 10.6178 10.9195 11.0294 10.5766C11.2465 10.381 11.3109 10.0539 11.2522 9.77238C11.1886 9.53473 10.9469 9.42399 10.7393 9.35158C9.67416 9.00501 8.51798 9.13077 7.46311 8.73885C7.03486 8.58319 6.62074 8.28887 6.45621 7.83635C6.22664 7.1959 6.33183 6.40371 6.81518 5.91311C7.28646 5.4251 7.96677 5.23717 8.61358 5.1699V5.16996Z" fill="#DBAB3E"/>
</svg>
