<svg width="17" height="17" viewBox="0 0 17 17" fill="none" xmlns="http://www.w3.org/2000/svg">
<path fill-rule="evenodd" clip-rule="evenodd" d="M16.6039 12.6183L16.5278 12.8174C15.2313 15.3657 12.9338 16.9291 9.65682 16.9981C8.12489 17.03 6.66527 16.6332 5.71174 16.2018C3.65403 15.2687 1.92319 13.5381 0.977991 11.6891C-0.377916 9.03861 -0.622448 5.35154 2.19687 2.59766C2.2404 2.59766 1.85486 3.19482 1.8984 3.19482L1.8208 3.44965C-0.210793 9.86939 6.04845 15.3711 12.133 14.7418C13.5953 14.5905 15.4599 13.7823 16.6039 12.6183Z" fill="#DBAB3E"/>
<path fill-rule="evenodd" clip-rule="evenodd" d="M12.9219 9.96242C14.4526 9.97293 16.0516 9.25084 16.9985 8.23704C16.1701 10.3594 13.7715 11.7235 10.5551 11.2897C7.86181 10.926 5.29629 8.19062 5.03208 5.44973C4.83884 3.45499 5.52758 2.2645 6.66261 0.820312C6.26818 1.57564 6.12074 2.15809 6.08402 2.52965C5.65287 6.84463 9.49915 9.93969 12.9219 9.96242" fill="#DBAB3E"/>
<path fill-rule="evenodd" clip-rule="evenodd" d="M16.8445 4.60286C16.6066 5.15379 15.2365 6.19414 14.6314 6.32423C12.2355 6.83944 10.7011 5.69269 9.8973 4.38776C9.77788 4.19291 9.557 3.6607 9.51745 3.52526C9.20572 2.4555 9.349 0.837474 10.2789 0C9.99875 0.796403 9.95787 1.72137 10.1053 2.32273C10.1946 2.68626 10.4668 3.32105 10.7392 3.7203C11.2347 4.44755 11.549 4.62426 12.1855 5.01052C12.4723 5.18436 12.7798 5.32381 12.9127 5.36201C13.5163 5.54139 14.7906 6.01381 16.8447 4.60286" fill="#DBAB3E"/>
</svg>
