<svg width="24" height="23" viewBox="0 0 24 23" fill="none" xmlns="http://www.w3.org/2000/svg">
<path d="M12 0C5.37 0 0 5.27992 0 11.7918C0 17.0027 3.438 21.4217 8.205 22.9797C8.805 23.0907 9.025 22.7257 9.025 22.4127C9.025 22.1327 9.015 21.3907 9.01 20.4077C5.672 21.1187 4.968 18.8257 4.968 18.8257C4.422 17.4647 3.633 17.1007 3.633 17.1007C2.546 16.3698 3.717 16.3848 3.717 16.3848C4.922 16.4668 5.555 17.5997 5.555 17.5997C6.625 19.4027 8.364 18.8817 9.05 18.5807C9.158 17.8177 9.467 17.2987 9.81 17.0037C7.145 16.7088 4.344 15.6948 4.344 11.1768C4.344 9.88985 4.809 8.83787 5.579 8.01288C5.444 7.71488 5.039 6.5159 5.684 4.89193C5.684 4.89193 6.689 4.57593 8.984 6.10091C9.944 5.83891 10.964 5.70891 11.984 5.70292C13.004 5.70891 14.024 5.83891 14.984 6.10091C17.264 4.57593 18.269 4.89193 18.269 4.89193C18.914 6.5159 18.509 7.71488 18.389 8.01288C19.154 8.83787 19.619 9.88985 19.619 11.1768C19.619 15.7068 16.814 16.7038 14.144 16.9937C14.564 17.3477 14.954 18.0707 14.954 19.1757C14.954 20.7537 14.939 22.0217 14.939 22.4047C14.939 22.7137 15.149 23.0827 15.764 22.9647C20.565 21.4167 24 16.9947 24 11.7918C24 5.27992 18.627 0 12 0V0Z" fill="#DBAB3E"/>
</svg>
