<svg width="21" height="17" viewBox="0 0 21 17" fill="none" xmlns="http://www.w3.org/2000/svg">
<path fill-rule="evenodd" clip-rule="evenodd" d="M4.36177 0C3.16354 0 2.2769 1.06577 2.3166 2.22157C2.35471 3.33199 2.3052 4.77013 1.94894 5.94294C1.59141 7.11904 0.987164 7.86433 0 7.95999V9.04001C0.987164 9.13588 1.59141 9.88079 1.9489 11.0571C2.3052 12.2299 2.35467 13.668 2.31656 14.7784C2.27686 15.9341 3.16349 17 4.36193 17H16.6398C17.8381 17 18.7245 15.9342 18.6848 14.7784C18.6467 13.668 18.6962 12.2299 19.0525 11.0571C19.41 9.88079 20.0128 9.13559 21 9.04001V7.95999C20.0128 7.86412 19.4101 7.11921 19.0525 5.94294C18.6962 4.7703 18.6467 3.33199 18.6848 2.22157C18.7245 1.06594 17.8381 0 16.6398 0H4.3616H4.36177ZM14.2373 10.4646C14.2373 12.0561 13.0691 13.0213 11.1305 13.0213H7.8305C7.7361 13.0213 7.64557 12.9832 7.57882 12.9154C7.51206 12.8475 7.47456 12.7555 7.47456 12.6596V4.34045C7.47456 4.24452 7.51206 4.15252 7.57882 4.08468C7.64557 4.01685 7.7361 3.97874 7.8305 3.97874H11.1117C12.7282 3.97874 13.7891 4.86854 13.7891 6.23466C13.7891 7.19352 13.0754 8.05193 12.1662 8.20232V8.25233C13.4039 8.3903 14.2373 9.26142 14.2373 10.4646V10.4646ZM10.7707 5.12533H8.88907V7.82623H10.4739C11.699 7.82623 12.3745 7.3249 12.3745 6.42881C12.3744 5.58903 11.7936 5.12533 10.7707 5.12533ZM8.88907 8.89788V11.8743H10.8399C12.1155 11.8743 12.7912 11.3542 12.7912 10.3767C12.7912 9.39922 12.0966 8.89772 10.7579 8.89772H8.88907V8.89788Z" fill="#DBAB3E"/>
</svg>
