<svg width="18" height="17" viewBox="0 0 18 17" fill="none" xmlns="http://www.w3.org/2000/svg">
<path d="M17.0178 7.65L9.72573 0.357895C9.50205 0.134211 9.18889 0 8.87573 0C8.56257 0 8.24942 0.134211 8.02573 0.357895L6.45994 1.92368L8.29415 3.75789C8.4731 3.66842 8.65205 3.62368 8.87573 3.62368C9.63626 3.62368 10.2178 4.20526 10.2178 4.96579C10.2178 5.18947 10.1731 5.36842 10.0836 5.54737L11.8731 7.33684C12.052 7.24737 12.231 7.20263 12.4547 7.20263C13.2152 7.20263 13.7968 7.78421 13.7968 8.54474C13.7968 9.30526 13.2152 9.88684 12.4547 9.88684C11.6942 9.88684 11.1126 9.30526 11.1126 8.54474C11.1126 8.32105 11.1573 8.1421 11.2468 7.96316L9.45731 6.17368C9.41257 6.17368 9.36784 6.21842 9.3231 6.21842V10.8711C9.85994 11.05 10.2178 11.5421 10.2178 12.1237C10.2178 12.8842 9.63626 13.4658 8.87573 13.4658C8.11521 13.4658 7.53363 12.8842 7.53363 12.1237C7.53363 11.5421 7.89152 11.05 8.42836 10.8711V6.17368C7.89152 5.99474 7.53363 5.50263 7.53363 4.92105C7.53363 4.69737 7.57836 4.51842 7.66784 4.33947L5.83363 2.50526L0.733627 7.65C0.509943 7.87368 0.375732 8.18684 0.375732 8.5C0.375732 8.81316 0.509943 9.12632 0.733627 9.35L8.02573 16.6421C8.24942 16.8658 8.56257 17 8.87573 17C9.18889 17 9.50205 16.8658 9.72573 16.6421L17.0178 9.35C17.2415 9.12632 17.3757 8.81316 17.3757 8.5C17.3757 8.18684 17.2415 7.87368 17.0178 7.65Z" fill="#DBAB3E"/>
</svg>
