<svg width="18" height="17" viewBox="0 0 18 17" fill="none" xmlns="http://www.w3.org/2000/svg">
<path d="M9 0C4.0275 0 0 3.90255 0 8.7157C0 12.5672 2.5785 15.8334 6.15375 16.985C6.60375 17.067 6.76875 16.7972 6.76875 16.5659C6.76875 16.3589 6.76125 15.8105 6.7575 15.0839C4.254 15.6095 3.726 13.9147 3.726 13.9147C3.3165 12.9087 2.72475 12.6397 2.72475 12.6397C1.9095 12.0994 2.78775 12.1105 2.78775 12.1105C3.6915 12.1711 4.16625 13.0085 4.16625 13.0085C4.96875 14.3411 6.273 13.9561 6.7875 13.7336C6.8685 13.1696 7.10025 12.786 7.3575 12.568C5.35875 12.3499 3.258 11.6005 3.258 8.26114C3.258 7.30989 3.60675 6.53234 4.18425 5.92256C4.083 5.70231 3.77925 4.8161 4.263 3.61577C4.263 3.61577 5.01675 3.38221 6.738 4.50937C7.458 4.31572 8.223 4.21963 8.988 4.2152C9.753 4.21963 10.518 4.31572 11.238 4.50937C12.948 3.38221 13.7017 3.61577 13.7017 3.61577C14.1855 4.8161 13.8817 5.70231 13.7917 5.92256C14.3655 6.53234 14.7142 7.30989 14.7142 8.26114C14.7142 11.6093 12.6105 12.3463 10.608 12.5606C10.923 12.8222 11.2155 13.3566 11.2155 14.1734C11.2155 15.3397 11.2043 16.2769 11.2043 16.56C11.2043 16.7884 11.3617 17.0611 11.823 16.9739C15.4238 15.8297 18 12.5613 18 8.7157C18 3.90255 13.9702 0 9 0V0Z" fill="#DBAB3E"/>
</svg>
