<svg width="23" height="17" viewBox="0 0 23 17" fill="none" xmlns="http://www.w3.org/2000/svg">
<path d="M19.7995 9.76188C18.9953 9.76635 18.299 9.9568 17.7149 10.2404C17.4993 9.81951 17.2837 9.45178 17.2478 9.17716C17.2073 8.85821 17.1579 8.66324 17.2073 8.28231C17.2567 7.90129 17.4813 7.36083 17.4813 7.31653C17.4768 7.27666 17.4319 7.08174 16.9692 7.07731C16.5065 7.07288 16.1066 7.16591 16.0617 7.28552C16.0168 7.40513 15.9269 7.67979 15.8685 7.96331C15.7876 8.37972 14.943 9.85491 14.4623 10.6302C14.3051 10.3289 14.1703 10.0631 14.1433 9.85043C14.1029 9.53152 14.0534 9.33655 14.1029 8.95562C14.1523 8.5746 14.377 8.03419 14.377 7.98989C14.3725 7.95002 14.3275 7.7551 13.8649 7.75067C13.4021 7.74624 13.0023 7.83927 12.9573 7.95888C12.9124 8.07848 12.863 8.362 12.7642 8.63666C12.6698 8.91132 11.5466 11.3744 11.2546 12.0167C11.1064 12.3446 10.9761 12.6059 10.8817 12.7831C10.7874 12.9603 10.8772 12.7964 10.8683 12.8141C10.7874 12.9648 10.7425 13.0489 10.7425 13.0489V13.0534C10.6796 13.1641 10.6122 13.2704 10.5807 13.2704C10.5582 13.2704 10.5133 12.9736 10.5897 12.5661C10.7559 11.7111 11.1602 10.3777 11.1558 10.329C11.1558 10.3068 11.2321 10.072 10.8952 9.95241C10.5672 9.8328 10.4504 10.0322 10.4234 10.0322C10.3965 10.0322 10.374 10.103 10.374 10.103C10.374 10.103 10.7379 8.60131 9.67768 8.60131C9.01277 8.60131 8.09629 9.31454 7.64254 9.96574C7.35501 10.1208 6.74402 10.4486 6.09709 10.7986C5.85 10.9315 5.59392 11.0732 5.35132 11.2017L5.30195 11.1485C4.01707 9.79732 1.6405 8.84044 1.73933 7.02415C1.77527 6.36408 2.00889 4.6231 6.30384 2.51443C9.82153 0.786738 12.6384 1.26075 13.128 2.31508C13.8244 3.82127 11.623 6.62102 7.96609 7.02415C6.57339 7.1792 5.84106 6.6476 5.65691 6.44825C5.46373 6.24004 5.43677 6.23118 5.36489 6.27105C5.24808 6.33307 5.31996 6.51913 5.36489 6.62988C5.47271 6.90897 5.92197 7.40513 6.68571 7.65321C7.35506 7.87028 8.9904 7.98989 10.9671 7.23679C13.182 6.39066 14.9116 4.04277 14.404 2.08029C13.8873 0.0823708 10.5269 -0.573266 7.35061 0.538659C5.45919 1.20316 3.41057 2.23977 1.93701 3.59978C0.184899 5.21229 -0.0936404 6.62102 0.0231666 7.20578C0.432036 9.2923 3.34768 10.6523 4.51575 11.6579C4.45734 11.6889 4.40343 11.7199 4.35401 11.7465C3.76998 12.03 1.54615 13.1774 0.989071 14.3912C0.36011 15.7645 1.08791 16.7524 1.57311 16.8853C3.07363 17.2973 4.61009 16.5575 5.44122 15.3392C6.26781 14.121 6.16902 12.5395 5.78715 11.8174L5.77362 11.7908L6.23187 11.525C6.52842 11.3522 6.82044 11.1928 7.07647 11.0554C6.93275 11.4408 6.82938 11.8971 6.77551 12.5616C6.71262 13.3413 7.03608 14.3513 7.46288 14.75C7.65157 14.9227 7.8762 14.9272 8.01547 14.9272C8.50965 14.9272 8.73428 14.524 8.98137 14.0412C9.28687 13.452 9.55642 12.7698 9.55642 12.7698C9.55642 12.7698 9.21948 14.6171 10.1405 14.6171C10.4774 14.6171 10.8143 14.1874 10.9671 13.9659V13.9703C10.9671 13.9703 10.9761 13.957 10.994 13.926C11.0129 13.8985 11.0309 13.8705 11.048 13.8419V13.833C11.1827 13.6027 11.4837 13.0755 11.933 12.2028C12.5125 11.0776 13.0696 9.66885 13.0696 9.66885C13.0696 9.66885 13.1235 10.0144 13.2898 10.5814C13.3885 10.9181 13.6042 11.2858 13.7704 11.6446C13.6356 11.8307 13.5548 11.937 13.5548 11.937L13.5593 11.9415C13.4515 12.0832 13.3301 12.2339 13.2044 12.3845C12.7462 12.9249 12.1981 13.5407 12.1262 13.7179C12.0408 13.9261 12.0588 14.0812 12.225 14.2052C12.3463 14.2938 12.562 14.3115 12.7911 14.2938C13.2044 14.2672 13.4919 14.1654 13.6357 14.1033C13.8603 14.0236 14.1164 13.904 14.3635 13.7268C14.8127 13.399 15.0868 12.9338 15.0598 12.3136C15.0464 11.9725 14.934 11.6358 14.7948 11.3169C14.8352 11.2593 14.8757 11.2017 14.9161 11.1397C15.6259 10.1163 16.174 8.99115 16.174 8.99115C16.174 8.99115 16.2279 9.33669 16.3941 9.90373C16.4794 10.1917 16.6502 10.5062 16.803 10.8163C16.1381 11.3524 15.7202 11.9726 15.5765 12.3801C15.3114 13.1332 15.5181 13.4743 15.9089 13.5541C16.0841 13.5895 16.3357 13.5098 16.5244 13.43C16.758 13.3547 17.041 13.2262 17.3016 13.0358C17.7509 12.7079 18.1822 12.2517 18.1597 11.6359C18.1462 11.3524 18.0699 11.0733 17.9665 10.8075C18.5326 10.5771 19.2648 10.4442 20.1949 10.555C22.194 10.7853 22.5894 12.0169 22.5131 12.5307C22.4367 13.0447 22.0189 13.3281 21.8796 13.4167C21.7403 13.5009 21.6954 13.532 21.7089 13.5939C21.7268 13.687 21.7897 13.6825 21.911 13.6649C22.0772 13.6382 22.9623 13.244 22.9982 12.296C23.0521 11.0776 21.8796 9.74863 19.7995 9.76188ZM4.38097 14.8874C3.72056 15.6006 2.7906 15.8708 2.39525 15.6405C1.96845 15.3968 2.13463 14.3469 2.94784 13.5894C3.44202 13.1287 4.08446 12.7034 4.50676 12.442C4.60111 12.3844 4.74487 12.3003 4.91559 12.1984C4.94254 12.1807 4.96051 12.1718 4.96051 12.1718C4.99196 12.1541 5.0279 12.1319 5.06384 12.1098C5.36484 13.1907 5.07732 14.1387 4.38097 14.8874ZM9.21049 11.649C8.98137 12.2028 8.49617 13.6248 8.20415 13.5451C7.95253 13.4786 7.79982 12.4021 8.15469 11.339C8.33439 10.8029 8.71626 10.165 8.94089 9.91688C9.30484 9.51818 9.70014 9.38528 9.79902 9.54919C9.91583 9.76188 9.35425 11.3035 9.21049 11.649ZM13.1954 13.5274C13.0966 13.5761 13.0067 13.6115 12.9663 13.585C12.9348 13.5673 13.0067 13.5008 13.0067 13.5008C13.0067 13.5008 13.5054 12.9737 13.703 12.73C13.8153 12.5883 13.9501 12.4244 14.0939 12.2383V12.2914C14.0939 12.9293 13.474 13.3546 13.1954 13.5274ZM16.2683 12.8363C16.1964 12.7831 16.2054 12.6192 16.448 12.1053C16.5424 11.9016 16.758 11.5604 17.1309 11.2371C17.1758 11.37 17.2028 11.4984 17.1983 11.618C17.1938 12.4154 16.6188 12.7122 16.2683 12.8363Z" fill="#DBAB3E"/>
</svg>
