<svg width="17" height="17" viewBox="0 0 17 17" fill="none" xmlns="http://www.w3.org/2000/svg">
<path fill-rule="evenodd" clip-rule="evenodd" d="M17 1C17 0.447715 16.5523 0 16 0H1C0.447715 0 0 0.447715 0 1V16C0 16.5523 0.447715 17 1 17H16C16.5523 17 17 16.5523 17 16V1ZM5.67384 8.7539V8.7539C5.70213 8.66951 5.73665 8.58625 5.76693 8.50255C5.79272 8.43126 5.81895 8.36199 5.84533 8.29484C5.88782 8.18823 5.92614 8.08162 5.96066 7.97615C5.99519 7.87068 6.02364 7.76255 6.04603 7.65139C6.06841 7.54023 6.07941 7.42148 6.07941 7.29476C6.07941 7.24734 6.0722 7.2056 6.05779 7.16994C6.04337 7.13428 6.02402 7.10506 5.99936 7.08268C5.97508 7.05992 5.947 7.0436 5.91589 7.03298C5.8844 7.02236 5.85329 7.01704 5.82218 7.01704C5.75769 7.01704 5.69471 7.03829 5.63325 7.0804C5.57216 7.12289 5.52246 7.19422 5.48453 7.29438L5.17342 8.22503C5.13586 8.30432 5.07896 8.39727 5.00308 8.50426C4.92758 8.61125 4.84032 8.72279 4.74243 8.83889C4.64455 8.95498 4.5387 9.06993 4.42488 9.18337C4.31107 9.29681 4.19801 9.39849 4.08533 9.4884C3.97303 9.57832 3.86414 9.65078 3.75943 9.70618C3.65472 9.76157 3.56101 9.78926 3.47868 9.78926C3.40508 9.78926 3.34437 9.76877 3.29657 9.7278C3.24839 9.68721 3.21045 9.63485 3.18275 9.57149C3.15468 9.50813 3.13609 9.43719 3.12584 9.35941C3.1156 9.28164 3.11067 9.20576 3.11067 9.13177C3.11067 8.90983 3.14671 8.65943 3.21917 8.38096C3.29164 8.10248 3.38914 7.81984 3.51169 7.5334C3.63423 7.24696 3.77536 6.96697 3.93471 6.6938C4.09405 6.42026 4.26099 6.17745 4.43475 5.96499C4.60851 5.75253 4.78417 5.58143 4.96134 5.45205C5.13852 5.32268 5.30545 5.2578 5.46138 5.2578C5.56154 5.2578 5.65487 5.28588 5.74061 5.34279C5.82636 5.3997 5.90489 5.49151 5.97622 5.61823C6.0521 5.75822 6.12039 5.86597 6.18185 5.94109C6.24293 6.01659 6.30932 6.05415 6.38065 6.05415C6.45842 6.05415 6.52596 6.02 6.58287 5.95133C6.63977 5.88266 6.66823 5.78895 6.66823 5.6702C6.66823 5.62012 6.66292 5.56663 6.65305 5.50972C6.64319 5.45281 6.61929 5.39666 6.58135 5.34127C6.41631 5.09315 6.23914 4.91332 6.04982 4.80253C5.8605 4.69175 5.66436 4.63636 5.46138 4.63636C5.28534 4.63636 5.10741 4.67468 4.92796 4.75132C4.7485 4.82795 4.57057 4.93418 4.39453 5.07C4.21849 5.20583 4.04701 5.36821 3.8797 5.55714C3.71238 5.74608 3.55494 5.95285 3.40659 6.17707C3.25825 6.40129 3.12129 6.63955 2.99533 6.89185C2.86938 7.14414 2.75859 7.40213 2.66261 7.66618C2.56662 7.92986 2.48922 8.19544 2.43004 8.46215C2.37123 8.72886 2.33481 8.98912 2.32153 9.24256C2.31926 9.25849 2.31812 9.27405 2.31812 9.28998V9.34158C2.31812 9.48158 2.33595 9.62157 2.37161 9.76157C2.40728 9.90156 2.46191 10.0271 2.53551 10.1379C2.60911 10.2487 2.70206 10.3386 2.81474 10.4073C2.92742 10.4756 3.06173 10.5101 3.21766 10.5101C3.35348 10.5101 3.49499 10.4771 3.6422 10.4111C3.7894 10.3455 3.93547 10.2601 4.08039 10.1558C4.22494 10.0514 4.36684 9.93419 4.50493 9.8033C4.53126 9.77842 4.5572 9.75352 4.58276 9.72861C4.65538 9.65784 4.785 9.73438 4.7542 9.83099V9.83099C4.70412 9.98844 4.65707 10.1398 4.61382 10.2866C4.57057 10.4335 4.53301 10.5647 4.5019 10.6808C4.47079 10.7973 4.4541 10.8766 4.45182 10.9187C4.44954 10.9396 4.44841 10.9593 4.44841 10.9779V11.0333C4.44841 11.16 4.46472 11.2473 4.49697 11.2947C4.52922 11.3421 4.58119 11.366 4.65252 11.366C4.69463 11.366 4.73598 11.3508 4.7762 11.3205C4.81642 11.2901 4.85322 11.2518 4.8866 11.2055C4.91999 11.1592 4.94882 11.1107 4.97348 11.0591C4.99814 11.0075 5.01598 10.9604 5.02698 10.9183C5.03153 10.9051 5.04367 10.8629 5.06378 10.7916C5.08389 10.7199 5.10893 10.6315 5.1389 10.526C5.16887 10.4206 5.20302 10.3022 5.24096 10.1717C5.27889 10.0408 5.31835 9.90763 5.3597 9.77143C5.40068 9.63561 5.44089 9.50206 5.47997 9.37155C5.51867 9.24104 5.55509 9.12267 5.58848 9.0172C5.62186 8.91173 5.65032 8.82409 5.67384 8.7539ZM9.26896 9.54645V9.54645C9.3248 9.50396 9.3619 9.44218 9.38071 9.37458C9.40584 9.28422 9.434 9.1993 9.46532 9.11995C9.54347 8.91394 9.62238 8.70945 9.70282 8.5061C9.78287 8.30274 9.85647 8.11646 9.92362 7.94763L10.9366 5.39281C10.9768 5.28999 11.0307 5.21715 11.099 5.17503C11.1669 5.13292 11.2356 5.11168 11.3046 5.11168C11.3737 5.11168 11.4366 5.13406 11.4935 5.17883C11.5505 5.2236 11.5789 5.29644 11.5789 5.3966C11.5789 5.44402 11.5694 5.49448 11.5505 5.54722C11.5315 5.59995 11.5076 5.65686 11.4788 5.71756C11.423 5.84163 11.3566 5.99338 11.2799 6.17284C11.2029 6.35229 11.1206 6.54767 11.0326 6.759C10.9446 6.97032 10.8543 7.18999 10.7617 7.41838C10.6691 7.64677 10.5788 7.8691 10.4908 8.08573C10.4028 8.30236 10.3205 8.50762 10.2434 8.70148C10.1657 8.89573 10.0993 9.06418 10.0439 9.20684C10.0192 9.26754 9.99533 9.3381 9.9718 9.41891C9.94828 9.49935 9.9369 9.57143 9.9369 9.63479C9.9369 9.67425 9.94373 9.70611 9.95701 9.73002C9.97029 9.75392 9.99609 9.76568 10.034 9.76568C10.0807 9.76568 10.1391 9.74937 10.2097 9.71598C10.2799 9.68297 10.3557 9.63934 10.4369 9.58509C10.5185 9.53122 10.6031 9.469 10.6911 9.39881C10.7792 9.329 10.8668 9.25616 10.9537 9.18104C11.0406 9.10554 11.1236 9.03042 11.2029 8.9553C11.2822 8.8798 11.3528 8.81075 11.4154 8.74739V8.74739C11.4432 8.71836 11.4748 8.69003 11.4873 8.65178C11.5169 8.56077 11.5441 8.47132 11.5688 8.38348C11.5866 8.33606 11.6113 8.26853 11.6424 8.18127C11.6735 8.09401 11.7092 8.00827 11.7494 7.92366C11.7896 7.83906 11.8347 7.76583 11.8848 7.70399C11.9349 7.64177 11.9892 7.61104 12.0468 7.61104C12.136 7.61104 12.2005 7.63153 12.2407 7.6725C12.2809 7.71348 12.301 7.77342 12.301 7.85272C12.301 7.86865 12.2987 7.89369 12.2942 7.92783C12.2896 7.96198 12.2839 7.9984 12.2775 8.03672C12.2707 8.07504 12.2635 8.11146 12.2559 8.14561V8.14561C12.2523 8.16091 12.2768 8.17494 12.2876 8.16355C12.3548 8.09308 12.4261 8.02317 12.5017 7.95325C12.5977 7.86486 12.6967 7.7848 12.7995 7.71348C12.902 7.64215 13.0067 7.5841 13.1137 7.53896C13.2207 7.49419 13.3277 7.4718 13.4346 7.4718C13.5082 7.4718 13.5811 7.48243 13.6535 7.50367C13.726 7.52492 13.7905 7.55565 13.8474 7.59663C13.9043 7.6376 13.9506 7.6892 13.9863 7.75104C14.0219 7.81326 14.0398 7.88496 14.0398 7.96691C14.0398 8.07542 14.0125 8.19075 13.9578 8.31368C13.9032 8.4366 13.8345 8.5599 13.7522 8.68396C13.6695 8.80802 13.5803 8.92905 13.4847 9.04628C13.3887 9.16389 13.2992 9.27088 13.2154 9.36725C13.1319 9.46361 13.0617 9.54556 13.0048 9.61271C12.9479 9.68025 12.9183 9.72577 12.916 9.7493C12.916 9.78117 12.9263 9.80658 12.946 9.82669C12.9657 9.8468 12.9995 9.85629 13.0465 9.85629C13.0845 9.85629 13.1402 9.83504 13.2138 9.79293C13.2874 9.75081 13.3906 9.67759 13.523 9.57326C13.6554 9.46893 13.8239 9.32893 14.028 9.15327C14.2321 8.97799 14.4837 8.75681 14.7822 8.49009C14.8134 8.46885 14.8426 8.45177 14.8691 8.4385C14.8957 8.42522 14.9215 8.41877 14.9461 8.41877C14.9951 8.41877 15.0319 8.44077 15.0565 8.48402C15.0812 8.52765 15.0933 8.58115 15.0933 8.64451C15.0933 8.71318 15.0785 8.78298 15.0482 8.85431C15.0182 8.92564 14.9731 8.98482 14.9128 9.03263C14.6741 9.24395 14.4613 9.43668 14.2742 9.61082C14.0868 9.78496 13.9104 9.93482 13.7442 10.0604C13.5781 10.186 13.416 10.2827 13.2578 10.3514C13.0996 10.4201 12.93 10.4542 12.7495 10.4542C12.5799 10.4542 12.449 10.417 12.3564 10.3434C12.2638 10.2694 12.2176 10.1678 12.2176 10.0384V10.0088C12.2176 9.99969 12.2187 9.98831 12.221 9.97503C12.2297 9.89574 12.2646 9.80469 12.3245 9.70187C12.3849 9.59906 12.4573 9.49207 12.5419 9.38091C12.6265 9.26974 12.7168 9.15782 12.8128 9.04438C12.9088 8.93095 12.9972 8.8232 13.0788 8.72152C13.16 8.61985 13.2275 8.52689 13.281 8.44229C13.3345 8.35769 13.3614 8.2894 13.3614 8.23628C13.3614 8.20441 13.35 8.17937 13.328 8.16116C13.3056 8.14257 13.2688 8.13346 13.2176 8.13346C13.1285 8.13346 13.0367 8.15661 12.9418 8.20289C12.847 8.24918 12.7533 8.31102 12.6611 8.3888C12.5685 8.46657 12.4782 8.55573 12.3902 8.65627C12.3022 8.75681 12.2198 8.86076 12.1428 8.96927C12.0658 9.07777 11.9956 9.18628 11.9322 9.29592C11.8689 9.40557 11.8146 9.50648 11.7702 9.59906C11.757 9.62827 11.738 9.66924 11.7133 9.72198C11.6887 9.77472 11.6621 9.83428 11.6333 9.90029C11.6041 9.96631 11.5737 10.0342 11.5411 10.104C11.5088 10.1742 11.4793 10.2402 11.4527 10.3021L11.3806 10.4686C11.3594 10.5176 11.3442 10.551 11.3355 10.5695C11.3241 10.5934 11.3059 10.6382 11.2801 10.7042C11.2567 10.764 11.2305 10.8329 11.2007 10.9113L11.1913 10.936C11.1848 10.9533 11.1782 10.9707 11.1715 10.9883C11.1441 11.0609 11.1155 11.1365 11.0862 11.2153C11.0494 11.3132 11.0149 11.4053 10.9826 11.4926C10.9504 11.5799 10.9219 11.6561 10.8973 11.7221C10.8726 11.7881 10.857 11.8329 10.8502 11.8568C10.8278 11.9255 10.8017 11.99 10.7717 12.0511C10.7417 12.1118 10.7072 12.1653 10.6681 12.2116C10.629 12.2578 10.5846 12.2946 10.5342 12.3223C10.4841 12.35 10.4276 12.3637 10.3654 12.3637C10.2849 12.3637 10.2189 12.3443 10.1662 12.3064C10.1138 12.2681 10.0876 12.1949 10.0876 12.0867C10.0876 12.034 10.0945 11.9797 10.1077 11.9244C10.121 11.869 10.1381 11.8139 10.1578 11.7601C10.1779 11.7058 10.1984 11.6531 10.2197 11.6019C10.2409 11.5503 10.2603 11.501 10.2781 11.4531C10.3984 11.1891 10.5213 10.9243 10.6461 10.6591C10.7709 10.3935 10.8908 10.131 11.0054 9.8707C11.0252 9.82591 11.0448 9.78124 11.0641 9.7367C11.0668 9.73035 11.0588 9.72483 11.0538 9.72964V9.72964C10.9089 9.86963 10.7647 9.99294 10.6209 10.0999C10.4772 10.2069 10.3345 10.2919 10.193 10.3556C10.0515 10.419 9.91376 10.4505 9.77983 10.4505C9.6884 10.4505 9.61214 10.4361 9.55068 10.4069C9.48922 10.3776 9.44028 10.3382 9.40347 10.2881C9.36667 10.238 9.3405 10.1785 9.32494 10.1098V10.1098C9.31779 10.0782 9.27998 10.0631 9.25398 10.0824C9.23389 10.0973 9.21372 10.1119 9.19346 10.1262C9.05536 10.2237 8.91916 10.3022 8.78561 10.3618C8.65169 10.4213 8.53142 10.4509 8.42443 10.4509C8.31745 10.4509 8.23056 10.4153 8.16341 10.3439C8.09664 10.2726 8.06325 10.1512 8.06325 9.97934C8.06325 9.96419 8.06353 9.94873 8.06409 9.93296C8.06637 9.86796 7.94071 9.81835 7.89936 9.86855V9.86855C7.81247 9.97403 7.71307 10.0704 7.60153 10.1577C7.48999 10.2449 7.36517 10.3155 7.22707 10.3694C7.08897 10.4236 6.93835 10.4505 6.7756 10.4505C6.70199 10.4505 6.63105 10.4414 6.56314 10.4228C6.49522 10.4043 6.43566 10.3728 6.38444 10.328C6.33323 10.2832 6.29187 10.2233 6.26076 10.1478C6.22965 10.0727 6.2141 9.9782 6.2141 9.86476C6.2141 9.86242 6.21765 9.83079 6.22448 9.76987L6.22454 9.76936L6.22737 9.74411C6.2361 9.66634 6.26455 9.54342 6.31274 9.37572C6.36054 9.20803 6.4349 8.99102 6.53506 8.72431C6.6356 8.4576 6.77711 8.13435 6.9596 7.75382C7.00627 7.65366 7.06052 7.58158 7.1216 7.53795C7.18306 7.49432 7.24908 7.47269 7.3204 7.47269C7.35151 7.47269 7.38376 7.47725 7.41753 7.48635C7.45091 7.49584 7.48202 7.51025 7.51124 7.52998C7.54007 7.54971 7.56359 7.57475 7.58143 7.6051C7.59926 7.63545 7.60836 7.67036 7.60836 7.71019C7.60836 7.73675 7.60495 7.76179 7.59812 7.78531C7.58712 7.83046 7.56321 7.88889 7.52603 7.96173C7.48923 8.03457 7.44636 8.11766 7.39742 8.21137C7.34848 8.30508 7.2965 8.406 7.24187 8.5145C7.18724 8.62263 7.1364 8.73493 7.08973 8.85103C7.04307 8.96712 7.00285 9.08549 6.96947 9.20538C6.93608 9.32565 6.91711 9.4425 6.91256 9.55594C6.91256 9.60336 6.92356 9.64699 6.94594 9.68683C6.96833 9.72628 7.00513 9.74639 7.05635 9.74639C7.20127 9.74639 7.33937 9.69897 7.47102 9.60374C7.60267 9.50889 7.72408 9.39052 7.83562 9.24939C7.94716 9.10825 8.04808 8.9565 8.13837 8.79374C8.22867 8.63136 8.30417 8.48302 8.36411 8.34833C8.4066 8.25842 8.44378 8.16205 8.47603 8.05923C8.50828 7.95642 8.54356 7.86119 8.5815 7.77393C8.61944 7.68667 8.66269 7.61421 8.71201 7.55616C8.76095 7.49811 8.82242 7.4689 8.89602 7.4689C8.97607 7.4689 9.03981 7.49925 9.08647 7.55995C9.13314 7.62066 9.15666 7.6935 9.15666 7.77773C9.15666 7.82515 9.14186 7.89078 9.11151 7.97387C9.08116 8.05696 9.0436 8.15219 8.9977 8.25917C8.95217 8.36616 8.90247 8.48036 8.84897 8.60176C8.79548 8.72317 8.74578 8.84685 8.70025 8.97205C8.65435 9.09763 8.61679 9.22017 8.58643 9.34044C8.55646 9.46071 8.54129 9.57225 8.54129 9.67506C8.54129 9.77029 8.59023 9.81772 8.68849 9.81772C8.75754 9.81772 8.84328 9.79381 8.9461 9.74639C9.04891 9.69897 9.15628 9.63219 9.26896 9.54645Z" fill="#DBAB3E"/>
</svg>
